<?xml version="1.0" encoding="UTF-8" standalone="no"?>
<!-- Generator: Adobe Illustrator 19.0.0, SVG Export Plug-In . SVG Version: 6.00 Build 0)  -->

<svg
   version="1.1"
   id="Capa_1"
   viewBox="0 0 64 64"
   sodipodi:docname="medal5.svg"
   inkscape:version="1.2.1 (9c6d41e410, 2022-07-14)"
   fill="none"
   height="64"
   width="64"
   xmlns:inkscape="http://www.inkscape.org/namespaces/inkscape"
   xmlns:sodipodi="http://sodipodi.sourceforge.net/DTD/sodipodi-0.dtd"
   xmlns="http://www.w3.org/2000/svg"
   xmlns:svg="http://www.w3.org/2000/svg">
  <defs
     id="defs55" />
  <sodipodi:namedview
     id="namedview53"
     pagecolor="#ffffff"
     bordercolor="#0000000"
     borderopacity="0.25"
     inkscape:pageopacity="0"
     inkscape:pagecheckerboard="0"
     showgrid="false"
     inkscape:zoom="6.2685632"
     inkscape:cx="35.414814"
     inkscape:cy="33.021921"
     inkscape:window-width="1920"
     inkscape:window-height="1017"
     inkscape:window-x="-8"
     inkscape:window-y="-8"
     inkscape:window-maximized="1"
     inkscape:showpageshadow="2"
     inkscape:deskcolor="#d1d1d1"
     inkscape:current-layer="Capa_1" />
  <path
     id="polygon6"
     d="M 43.421016,63.141741 32.644298,42.42457 47.167026,34.559598 57.943744,55.27677 48.157528,54.35426 Z"
     style="opacity:0.3;stroke-width:0.0974042"
     fill="currentColor" />
  <path
     id="polygon2"
     d="M 5.1996042,55.548521 14.835337,54.657878 19.49902,63.141741 30.110034,43.140382 15.810609,35.547161 Z"
     style="opacity:0.3;stroke-width:0.094968"
     fill="currentColor" />
  <path
     id="circle12"
     d="M 31.571778,2.218753 A 22.768785,22.230871 0 0 0 8.8029523,24.449667 22.768785,22.230871 0 0 0 31.571778,46.680572 22.768785,22.230871 0 0 0 54.340366,24.449667 22.768785,22.230871 0 0 0 31.571778,2.218753 Z m 0,6.3619533 c 8.962366,0 16.252696,7.1202327 16.252696,15.8689607 0,8.748729 -7.29033,15.866861 -16.252696,15.866861 -8.962366,0 -16.252933,-7.119995 -16.252933,-15.868724 0,-8.748727 7.290567,-15.8670977 16.252933,-15.8670977 z"
     fill="currentColor"
     style="stroke-width:0.120481" />
  <path
     d="m 42.918023,20.93528 c -2.634992,0 -5.269994,0 -7.904986,0 -0.885932,-2.543335 -1.633753,-5.142863 -2.607518,-7.650473 -1.434387,-1.280715 -2.12128,0.869059 -2.37917,1.951826 -0.632013,1.899549 -1.264025,3.799098 -1.896037,5.698647 -2.750899,0.0363 -5.513807,-0.07315 -8.257072,0.05577 -1.692081,0.936004 0.191751,2.238218 1.166441,2.812815 1.654727,1.174015 3.309442,2.348031 4.964169,3.522046 -0.814729,2.565731 -1.774613,5.097691 -2.497048,7.68489 0.389411,1.859277 2.240222,0.513841 3.100708,-0.214195 1.654717,-1.174015 3.309444,-2.34804 4.964159,-3.522055 2.247404,1.549469 4.416472,3.224318 6.713672,4.694056 1.932082,0.213956 1.193136,-1.919967 0.750195,-2.944049 -0.632012,-1.899548 -1.264024,-3.799099 -1.896037,-5.698647 2.203507,-1.608201 4.504432,-3.105489 6.646015,-4.784207 0.48533,-0.635841 -0.04571,-1.647861 -0.867491,-1.606376 z"
     id="path20"
     style="opacity:0.3;stroke-width:0.120481"
     fill="currentColor" />
</svg>
