<?xml version="1.0" encoding="UTF-8"?>
<svg id="Glyph" width="512" height="512" version="1.1" viewBox="0 0 64 64" xmlns="http://www.w3.org/2000/svg">
 <path d="m4 50a5.0018 5.0018 0 0 0 5 5h46a5.0018 5.0018 0 0 0 5-5v-29.36h-56zm39-18.18a1.0001 1.0001 0 0 1 2 0v12a1.0001 1.0001 0 0 1-2 0zm-12 0a1.0029 1.0029 0 0 1 1-1h6a3.0088 3.0088 0 0 1 3 3v2a3.0024 3.0024 0 0 1-3 3h-5v5a1.0001 1.0001 0 0 1-2 0zm-12 2a3.0088 3.0088 0 0 1 3-3h4a3.0088 3.0088 0 0 1 3 3v10a1.0002 1.0002 0 0 1-2-7e-5v-4.9999h-6v5a1.0001 1.0001 0 0 1-2 0z" opacity=".5"/>
 <path d="m27 33.82a1.0029 1.0029 0 0 0-1-1h-4a1.0029 1.0029 0 0 0-1 1v3h6z" opacity=".5"/>
 <path d="m55 9h-46a5.0018 5.0018 0 0 0-5 5v4.64h56v-4.64a5.0018 5.0018 0 0 0-5-5zm-43 5.82a1.0002 1.0002 0 0 1 6e-5 -2 1.0002 1.0002 0 0 1-6e-5 2zm4 0a1.0002 1.0002 0 0 1 6e-5 -2 1.0002 1.0002 0 0 1-6e-5 2zm4 0a1.0002 1.0002 0 0 1 6e-5 -2 1.0002 1.0002 0 0 1-6e-5 2zm32 0h-8a1.0001 1.0001 0 0 1 5e-5 -2h8a1.0001 1.0001 0 0 1 0 2z"/>
 <path d="m39 35.82v-2a1.0029 1.0029 0 0 0-1-1h-5v4h5a1.003 1.003 0 0 0 1-1z" opacity=".5"/>
</svg>
