<?xml version="1.0" encoding="UTF-8" standalone="no"?>
<!-- Generator: Adobe Illustrator 19.0.0, SVG Export Plug-In . SVG Version: 6.00 Build 0)  -->

<svg
   version="1.1"
   id="Layer_1"
   x="0px"
   y="0px"
   width="35px"
   height="35px"
   viewBox="0 0 512 512"
   style="enable-background:new 0 0 512 512;"
   xml:space="preserve"
   sodipodi:docname="csv.svg"
   inkscape:version="1.1 (c68e22c387, 2021-05-23)"
   xmlns:inkscape="http://www.inkscape.org/namespaces/inkscape"
   xmlns:sodipodi="http://sodipodi.sourceforge.net/DTD/sodipodi-0.dtd"
   xmlns="http://www.w3.org/2000/svg"
   xmlns:svg="http://www.w3.org/2000/svg"><defs
   id="defs53" /><sodipodi:namedview
   id="namedview51"
   pagecolor="#ffffff"
   bordercolor="#666666"
   borderopacity="1.0"
   inkscape:pageshadow="2"
   inkscape:pageopacity="0.0"
   inkscape:pagecheckerboard="0"
   showgrid="false"
   inkscape:zoom="1.5859375"
   inkscape:cx="255.68473"
   inkscape:cy="256"
   inkscape:window-width="1492"
   inkscape:window-height="1030"
   inkscape:window-x="2758"
   inkscape:window-y="110"
   inkscape:window-maximized="0"
   inkscape:current-layer="Layer_1" />
<path
   style="fill:#E2E5E7;"
   d="M128,0c-17.6,0-32,14.4-32,32v448c0,17.6,14.4,32,32,32h320c17.6,0,32-14.4,32-32V128L352,0H128z"
   id="path2" />
<path
   style="fill:#B0B7BD;"
   d="M384,128h96L352,0v96C352,113.6,366.4,128,384,128z"
   id="path4" />
<polygon
   style="fill:#CAD1D8;"
   points="480,224 384,128 480,128 "
   id="polygon6" />
<path
   style="fill:#d45500"
   d="M416,416c0,8.8-7.2,16-16,16H48c-8.8,0-16-7.2-16-16V256c0-8.8,7.2-16,16-16h352c8.8,0,16,7.2,16,16  V416z"
   id="path8" />
<g
   id="g16"
   transform="translate(4)">
	
	
	<path
   style="fill:#ffffff"
   d="m 190.06156,315.30254 c 2.944,-24.832 40.416,-29.296 58.08,-15.728 8.704,7.024 -0.512,18.16 -8.192,12.528 -9.472,-6 -30.96,-8.816 -33.648,4.464 -3.456,20.992 52.192,8.976 51.296,43.008 -0.896,32.496 -47.968,33.248 -65.632,18.672 -4.24,-3.456 -4.096,-9.072 -1.792,-12.544 3.328,-3.312 7.024,-4.464 11.392,-0.88 10.48,7.152 37.488,12.528 39.392,-5.648 -1.648,-18.912 -54.864,-7.536 -50.896,-43.872 z"
   id="path14" /><path
   style="fill:#ffffff"
   d="m 306.33087,376.94849 -33.776,-70.736 c -4.992,-10.112 10.112,-18.416 15.728,-7.808 l 11.392,25.712 14.704,33.76 14.448,-33.76 11.392,-25.712 c 5.12,-9.712 19.952,-3.584 15.616,7.04 l -32.624,71.504 c -2.944,8.064 -12.032,9.984 -16.88,0 z"
   id="path12" />
<path
   style="fill:#ffffff"
   d="m 83.49474,336.86573 c 0,-24.688 15.488,-45.92 44.912,-45.92 11.12,0 19.952,3.328 29.296,11.392 3.456,3.184 3.824,8.832 0.368,12.4 -3.456,3.056 -8.688,2.688 -11.76,-0.384 -5.248,-5.504 -10.624,-7.024 -17.904,-7.024 -19.696,0 -29.168,13.952 -29.168,29.552 0,15.872 9.344,30.448 29.168,30.448 7.28,0 14.064,-2.944 19.952,-8.192 3.968,-3.056 9.472,-1.536 11.76,1.536 2.048,2.816 3.072,7.552 -1.408,12.032 -8.96,8.32 -19.696,9.984 -30.32,9.984 -30.944,0 -44.896,-21.12 -44.896,-45.824 z"
   id="path10" /></g>
<path
   style="fill:#CAD1D8;"
   d="M400,432H96v16h304c8.8,0,16-7.2,16-16v-16C416,424.8,408.8,432,400,432z"
   id="path18" />
<g
   id="g20">
</g>
<g
   id="g22">
</g>
<g
   id="g24">
</g>
<g
   id="g26">
</g>
<g
   id="g28">
</g>
<g
   id="g30">
</g>
<g
   id="g32">
</g>
<g
   id="g34">
</g>
<g
   id="g36">
</g>
<g
   id="g38">
</g>
<g
   id="g40">
</g>
<g
   id="g42">
</g>
<g
   id="g44">
</g>
<g
   id="g46">
</g>
<g
   id="g48">
</g>
</svg>
