<?xml version="1.0" encoding="UTF-8" standalone="no"?>
<!-- Generator: Adobe Illustrator 19.0.0, SVG Export Plug-In . SVG Version: 6.00 Build 0)  -->

<svg
   version="1.1"
   id="Layer_1"
   x="0px"
   y="0px"
   width="35px"
   height="35px"
   viewBox="0 0 512 512"
   style="enable-background:new 0 0 512 512;"
   xml:space="preserve"
   sodipodi:docname="xlsx.svg"
   inkscape:version="1.1 (c68e22c387, 2021-05-23)"
   xmlns:inkscape="http://www.inkscape.org/namespaces/inkscape"
   xmlns:sodipodi="http://sodipodi.sourceforge.net/DTD/sodipodi-0.dtd"
   xmlns="http://www.w3.org/2000/svg"
   xmlns:svg="http://www.w3.org/2000/svg"><defs
   id="defs117" /><sodipodi:namedview
   id="namedview115"
   pagecolor="#ffffff"
   bordercolor="#666666"
   borderopacity="1.0"
   inkscape:pageshadow="2"
   inkscape:pageopacity="0.0"
   inkscape:pagecheckerboard="0"
   showgrid="false"
   inkscape:zoom="1.5859375"
   inkscape:cx="255.68473"
   inkscape:cy="255.68473"
   inkscape:window-width="2400"
   inkscape:window-height="1271"
   inkscape:window-x="2391"
   inkscape:window-y="-9"
   inkscape:window-maximized="1"
   inkscape:current-layer="Layer_1" />
<path
   style="fill:#E2E5E7;"
   d="M128,0c-17.6,0-32,14.4-32,32v448c0,17.6,14.4,32,32,32h320c17.6,0,32-14.4,32-32V128L352,0H128z"
   id="path64" />
<path
   style="fill:#B0B7BD;"
   d="M384,128h96L352,0v96C352,113.6,366.4,128,384,128z"
   id="path66" />
<polygon
   style="fill:#CAD1D8;"
   points="480,224 384,128 480,128 "
   id="polygon68" />
<path
   style="fill:#008080"
   d="M416,416c0,8.8-7.2,16-16,16H48c-8.8,0-16-7.2-16-16V256c0-8.8,7.2-16,16-16h352c8.8,0,16,7.2,16,16  V416z"
   id="path70" />
<g
   id="g80"
   transform="translate(-8)">
	<path
   style="fill:#ffffff"
   d="m 108.336,326.192 22.256,-27.888 c 6.656,-8.704 19.584,2.416 12.288,10.736 -7.664,9.088 -15.728,18.944 -23.408,29.04 l 26.096,32.496 c 7.04,9.6 -7.024,18.8 -13.936,9.328 L 108.08,349.712 84.928,380.56 C 78.4,389.888 63.936,379.408 71.232,370.704 L 96.944,338.08 C 88.88,327.968 81.072,318.128 73.28,309.04 c -8.048,-9.6 6.912,-19.44 12.8,-10.464 z"
   id="path72" /><path
   style="fill:#ffffff"
   d="m 353.71256,325.16604 22.256,-27.888 c 6.656,-8.704 19.584,2.416 12.288,10.736 -7.664,9.088 -15.728,18.944 -23.408,29.04 l 26.096,32.496 c 7.04,9.6 -7.024,18.8 -13.936,9.328 l -23.552,-30.192 -23.152,30.848 c -6.528,9.328 -20.992,-1.152 -13.696,-9.856 l 25.712,-32.624 c -8.064,-10.112 -15.872,-19.952 -23.664,-29.04 -8.048,-9.6 6.912,-19.44 12.8,-10.464 z"
   id="path72-3" />
	<path
   style="fill:#ffffff"
   d="m 161.36,303.152 c 0,-4.224 3.584,-7.808 8.064,-7.808 4.096,0 7.552,3.6 7.552,7.808 v 64.096 h 34.8 c 12.528,0 12.8,16.752 0,16.752 H 169.44 c -4.48,0 -8.064,-3.184 -8.064,-7.792 v -73.056 z"
   id="path74" />
	<path
   style="fill:#ffffff"
   d="m 236.032,314.672 c 2.944,-24.832 40.416,-29.296 58.08,-15.728 8.704,7.024 -0.512,18.16 -8.192,12.528 -9.472,-6 -30.96,-8.816 -33.648,4.464 -3.456,20.992 52.192,8.976 51.296,43.008 -0.896,32.496 -47.968,33.248 -65.632,18.672 -4.24,-3.456 -4.096,-9.072 -1.792,-12.544 3.328,-3.312 7.024,-4.464 11.392,-0.88 10.48,7.152 37.488,12.528 39.392,-5.648 -1.648,-18.912 -54.864,-7.536 -50.896,-43.872 z"
   id="path76" />
	
</g>
<path
   style="fill:#CAD1D8;"
   d="M400,432H96v16h304c8.8,0,16-7.2,16-16v-16C416,424.8,408.8,432,400,432z"
   id="path82" />
<g
   id="g84">
</g>
<g
   id="g86">
</g>
<g
   id="g88">
</g>
<g
   id="g90">
</g>
<g
   id="g92">
</g>
<g
   id="g94">
</g>
<g
   id="g96">
</g>
<g
   id="g98">
</g>
<g
   id="g100">
</g>
<g
   id="g102">
</g>
<g
   id="g104">
</g>
<g
   id="g106">
</g>
<g
   id="g108">
</g>
<g
   id="g110">
</g>
<g
   id="g112">
</g>
</svg>
